# xmcd
# 
# Track frame offsets:
#     150
#     22488
#     41719
#     64067
#     83291
# 
# Disc length: 1320
# 
# Revision: 0
# Processed by: cddbd v1.5.2PL0 Copyright (c) Steve Scherf et al.
# Submitted via: fre:ac v1.0.17
# 
DISCID=3a052605
DTITLE=平浩二 - 愛・佐世保
DYEAR=2015
DGENRE=JPop
TTITLE0=愛・佐世保
TTITLE1=ぬくもり
TTITLE2=愛・佐世保（オリジナルカラオケ）
TTITLE3=ぬくもり（オリジナルカラオケ）
TTITLE4=バス・ストップ（ボーナストラック）
EXTD=
EXTT0=
EXTT1=
EXTT2=
EXTT3=
EXTT4=
PLAYORDER=
